<svg xmlns="http://www.w3.org/2000/svg" xmlns:xlink="http://www.w3.org/1999/xlink" width="10.77" height="12.9" viewBox="0 0 10.77 12.9">
  <defs>
    <style>
      .cls-1 {
        fill: none;
      }

      .cls-2 {
        clip-path: url(#clip-path);
      }

      .cls-3 {
        fill: #231f20;
      }
    </style>
    <clipPath id="clip-path" transform="translate(0 0)">
      <rect class="cls-1" width="10.77" height="12.9"/>
    </clipPath>
  </defs>
  <g id="Layer_2" data-name="Layer 2">
    <g id="Layer_1-2" data-name="Layer 1">
      <g class="cls-2">
        <path class="cls-3" d="M5.37,3.78A3.75,3.75,0,1,0,9.13,7.5,3.73,3.73,0,0,0,5.37,3.78M5.4,0h.93a.8.8,0,0,1,.86.76.78.78,0,0,1-.77.85c-.15,0-.26,0-.23.23s-.1.35.2.41a5,5,0,0,1,2.05.86c.14.1.22.08.33,0a1.8,1.8,0,0,1,.29-.26A.8.8,0,0,1,10.21,3.9L10.13,4c-.12.13-.32.26-.33.4s.17.3.26.45A5.38,5.38,0,1,1,4.11,2.31l.14,0c.32-.07.31-.07.31-.39S4.5,1.62,4.3,1.6A.78.78,0,0,1,3.56.79.8.8,0,0,1,4.37,0c.34,0,.69,0,1,0Z" transform="translate(0 0)"/>
        <path class="cls-3" d="M4.6,6.31V5.1a.65.65,0,0,1,.65-.72.67.67,0,0,1,.65.74c0,.53,0,1.07,0,1.6s-.07.38.38.51.81.2,1.2.32A.63.63,0,0,1,8,8.16a.58.58,0,0,1-.37.59,1.18,1.18,0,0,1-.59,0c-.47-.1-.94-.24-1.41-.36-.17-.05-.34-.08-.51-.14a.61.61,0,0,1-.47-.63c0-.44,0-.88,0-1.32Z" transform="translate(0 0)"/>
      </g>
    </g>
  </g>
</svg>
