<svg xmlns="http://www.w3.org/2000/svg" width="6.6" height="14.51" viewBox="0 0 6.6 14.51">
  <defs>
    <style>
      .cls-1 {
        fill: #242122;
      }
    </style>
  </defs>
  <g id="Layer_2" data-name="Layer 2">
    <g id="Layer_1-2" data-name="Layer 1">
      <g>
        <path class="cls-1" d="M2.44,4.65H4.32a1,1,0,0,1,1,.61,1,1,0,0,1,0,.58C4.93,7.89,4.72,9,4.31,11a1.1,1.1,0,0,0,0,.54.75.75,0,0,0,.95.45,2.24,2.24,0,0,0,.6-.25.52.52,0,0,1,.7.32,1.43,1.43,0,0,1-.18,1,2,2,0,0,1-.59.69,3.59,3.59,0,0,1-2.06.74,4.47,4.47,0,0,1-1.88-.25A1.8,1.8,0,0,1,.6,12.75a2.88,2.88,0,0,1,.06-.83c.27-1.8.52-3.13.88-4.91A.64.64,0,0,0,.9,6.18H.75A.78.78,0,0,1,0,5.35a.72.72,0,0,1,.79-.68C1.68,4.67,1.81,4.65,2.44,4.65Z"/>
        <path class="cls-1" d="M3.66,3.76A1.86,1.86,0,0,1,1.8,1.87,1.88,1.88,0,0,1,3.67,0,1.9,1.9,0,0,1,5.56,1.9,1.89,1.89,0,0,1,3.66,3.76Z"/>
      </g>
    </g>
  </g>
</svg>
