<svg xmlns="http://www.w3.org/2000/svg" width="484.57" height="189.19" viewBox="0 0 484.57 189.19">
  <defs>
    <style>
      .cls-1, .cls-2 {
        fill: none;
      }

      .cls-1, .cls-2, .cls-3, .cls-4, .cls-6, .cls-7 {
        stroke: #da1f35;
        stroke-miterlimit: 10;
      }

      .cls-1, .cls-4 {
        stroke-width: 6px;
      }

      .cls-2 {
        stroke-width: 9px;
      }

      .cls-3, .cls-4, .cls-6, .cls-7 {
        fill: #fff;
      }

      .cls-3 {
        stroke-width: 9.6px;
      }

      .cls-5 {
        fill: #da1f35;
      }

      .cls-6 {
        stroke-width: 3px;
      }

      .cls-7 {
        stroke-width: 2.25px;
      }
	  
	  .moveme { animation: conveyor 1s linear infinite; }
	  .fademe { animation: fadeout 1s linear infinite; }
	  
	  @keyframes conveyor { 
	    0% { transform: translateX(0px); }
	    100% { transform: translateX(44.5px); }
	  }
	  
	  @keyframes fadeout { 
	    0% { opacity: 1; transform: translateX(0px); }
	    60% { opacity: 1; }
	    100% { opacity: 0; transform: translateX(44.5px); }
	  }
    </style>
  </defs>
  <g id="Layer_2" data-name="Layer 2">
    <g id="Layer_5" data-name="Layer 5">
      <polyline id="strip" class="cls-1" points="484.57 60.36 162.03 60.36 162.03 32.58 484.57 32.58"/>
      <polygon class="cls-2" points="401.09 86.44 319.27 86.44 319.27 169.42 401.09 86.44"/>
      <rect class="cls-3" x="4.8" y="86.44" width="314.45" height="79.8"/>
      <path class="cls-4" d="M428.54,86.44H179.23V60.36H428.54a13,13,0,0,1,13,13h0A13,13,0,0,1,428.54,86.44Z"/>
      <g>
        <path class="cls-5" d="M36.4,136.67v1.77c0,5.76-1,13-10.55,13-8.66,0-10.36-5.71-10.36-12.93V114.21C15.49,106.67,18.84,102,26,102c8.62,0,10.23,5.88,10.23,12.39v2H29.69v-2.71c0-3.45-.69-5.84-3.78-5.84s-3.84,2.22-3.84,5.91v25.24c0,3.84.8,6.59,3.95,6.59s3.83-2.59,3.83-6.57v-2.41Z"/>
        <path class="cls-5" d="M63,115.07v23.21c0,8.9-3.73,13.2-11.47,13.2s-10.85-4.58-10.85-13.1V115c0-8.77,4.25-13,11.27-13C59.17,102,63,106.51,63,115.07Zm-15.74-.52v24.52c0,4.59,1.66,6.58,4.57,6.58,3.1,0,4.6-1.89,4.6-6.74V114.52c0-4.36-1.42-6.61-4.63-6.61C48.81,107.91,47.27,110,47.27,114.55Z"/>
        <path class="cls-5" d="M68.82,150.81v-48.1h7.54c2.2,7.67,8.34,32,9,35.17h.09c-.32-6.15-.36-12.92-.36-20.8V102.71h6v48.1H83.79c-2-7.13-8.57-33.55-9.23-36.33h-.07c.34,5.81.37,12.82.37,21.48v14.85Z"/>
        <path class="cls-5" d="M102,136.91v2.89c0,4,1.28,6.16,4.33,6.16s4.13-2.64,4.13-6.67c0-5.36-1.16-7.21-6.28-11.23s-7.87-6.59-7.87-13.7c0-6.24,1.88-12.4,10.09-12.38s9.74,5.69,9.74,11.28v2.43h-6.4v-2.25c0-3.62-.65-5.88-3.46-5.88s-3.51,2.43-3.51,5.86c0,3.85.74,5.53,5,8.73,7,5.2,9.15,8.18,9.15,16.2,0,6.8-2.2,13.13-10.82,13.13-8.42,0-10.6-5.42-10.6-11.76v-2.81Z"/>
        <path class="cls-5" d="M126.45,108.69h-7.74v-6h22v6H132.9v42.12h-6.45Z"/>
        <path class="cls-5" d="M150.5,128.9v21.91h-6.45v-48.1h9.49c7.28,0,11.28,3,11.28,11.37v2c0,7-2.72,9.25-4.9,10.08,2.91,1.24,4.44,3.37,4.44,9.86,0,4.08-.07,11.84.45,14.81h-6.25c-.62-2.95-.5-10.93-.5-14.37,0-6-.81-7.54-5.31-7.54Zm0-5.38h2.31c4.2,0,5.54-2,5.54-7.16V114.5c0-4-.95-6.42-5.41-6.42H150.5Z"/>
        <path class="cls-5" d="M176.37,102.71v36.92c0,3.71,1.25,6,4.44,6s4.33-2.37,4.33-6V102.71h6.47v36.78c0,7.52-3.39,12-10.93,12-7.23,0-10.76-4-10.76-11.93V102.71Z"/>
        <path class="cls-5" d="M218,136.67v1.77c0,5.76-1,13-10.55,13-8.66,0-10.36-5.71-10.36-12.93V114.21c0-7.54,3.34-12.18,10.46-12.18,8.62,0,10.23,5.88,10.23,12.39v2h-6.49v-2.71c0-3.45-.69-5.84-3.78-5.84s-3.84,2.22-3.84,5.91v25.24c0,3.84.8,6.59,3.95,6.59s3.83-2.59,3.83-6.57v-2.41Z"/>
        <path class="cls-5" d="M228,108.69h-7.75v-6h22v6h-7.76v42.12H228Z"/>
        <path class="cls-5" d="M252,102.71v48.1h-6.45v-48.1Z"/>
        <path class="cls-5" d="M280.08,115.07v23.21c0,8.9-3.73,13.2-11.47,13.2s-10.84-4.58-10.84-13.1V115c0-8.77,4.25-13,11.26-13C276.25,102,280.08,106.51,280.08,115.07Zm-15.74-.52v24.52c0,4.59,1.66,6.58,4.57,6.58,3.1,0,4.6-1.89,4.6-6.74V114.52c0-4.36-1.42-6.61-4.62-6.61C265.88,107.91,264.34,110,264.34,114.55Z"/>
        <path class="cls-5" d="M285.89,150.81v-48.1h7.55c2.2,7.67,8.34,32,9,35.17h.1c-.32-6.15-.36-12.92-.36-20.8V102.71h6v48.1h-7.27c-2-7.13-8.56-33.55-9.23-36.33h-.07c.34,5.81.38,12.82.38,21.48v14.85Z"/>
      </g>
      <circle class="cls-4" cx="428.93" cy="73.4" r="10.91"/>
      <circle class="cls-4" cx="399.08" cy="73.4" r="10.91"/>
      <circle class="cls-4" cx="369.23" cy="73.4" r="10.91"/>
      <circle class="cls-4" cx="339.38" cy="73.4" r="10.91"/>
      <circle class="cls-4" cx="309.53" cy="73.4" r="10.91"/>
      <circle class="cls-4" cx="279.68" cy="73.4" r="10.91"/>
      <line class="cls-3" x1="319.25" y1="166.23" x2="319.25" y2="189.19"/>
      <line class="cls-3" x1="4.8" y1="189.19" x2="4.8" y2="166.23"/>
      <circle class="cls-4" cx="249.84" cy="73.4" r="10.91"/>
      <circle class="cls-4" cx="219.99" cy="73.4" r="10.91"/>
      <circle class="cls-4" cx="190.14" cy="73.4" r="10.91"/>
      <g id="notthemagazine" class="moveme">
        <g id="differentmagazine">
          <line id="movingline" class="cls-4" x1="391.97" y1="60.36" x2="391.97" y2="32.58"/>
          <rect class="cls-6" x="354.34" y="39.1" width="30.46" height="14.74"/>
          <line id="movingline-2" data-name="movingline" class="cls-6" x1="359.38" y1="51.08" x2="359.38" y2="41.86"/>
          <rect class="cls-7" x="366.31" y="43.03" width="14.21" height="6.87"/>
          <line class="cls-7" x1="380.52" y1="43.03" x2="366.31" y2="49.91"/>
        </g>
        <g id="differentmagazine-2" data-name="differentmagazine">
          <line id="movingline-3" data-name="movingline" class="cls-4" x1="347.17" y1="60.36" x2="347.17" y2="32.58"/>
          <rect class="cls-6" x="309.54" y="39.1" width="30.46" height="14.74"/>
          <line id="movingline-4" data-name="movingline" class="cls-6" x1="314.57" y1="51.08" x2="314.57" y2="41.86"/>
          <rect class="cls-7" x="321.51" y="43.03" width="14.21" height="6.87"/>
          <line class="cls-7" x1="335.71" y1="43.03" x2="321.51" y2="49.91"/>
        </g>
        <g id="differentmagazine-3" data-name="differentmagazine">
          <line id="movingline-5" data-name="movingline" class="cls-4" x1="302.37" y1="60.36" x2="302.37" y2="32.58"/>
          <rect class="cls-6" x="264.73" y="39.1" width="30.46" height="14.74"/>
          <line id="movingline-6" data-name="movingline" class="cls-6" x1="269.77" y1="51.08" x2="269.77" y2="41.86"/>
          <rect class="cls-7" x="276.7" y="43.03" width="14.21" height="6.87"/>
          <line class="cls-7" x1="290.91" y1="43.03" x2="276.7" y2="49.91"/>
        </g>
        <g id="differentmagazine-4" data-name="differentmagazine">
          <line id="movingline-7" data-name="movingline" class="cls-4" x1="257.56" y1="60.36" x2="257.56" y2="32.58"/>
          <rect class="cls-6" x="219.93" y="39.1" width="30.46" height="14.74"/>
          <line id="movingline-8" data-name="movingline" class="cls-6" x1="224.97" y1="51.08" x2="224.97" y2="41.86"/>
          <rect class="cls-7" x="231.9" y="43.03" width="14.21" height="6.87"/>
          <line class="cls-7" x1="246.11" y1="43.03" x2="231.9" y2="49.91"/>
        </g>
        <g id="differentmagazine-5" data-name="differentmagazine">
          <line id="movingline-9" data-name="movingline" class="cls-4" x1="212.76" y1="60.36" x2="212.76" y2="32.58"/>
          <rect class="cls-6" x="175.13" y="39.1" width="30.46" height="14.74"/>
          <line id="movingline-10" data-name="movingline" class="cls-6" x1="180.17" y1="51.08" x2="180.17" y2="41.86"/>
          <rect class="cls-7" x="187.1" y="43.03" width="14.21" height="6.87"/>
          <line class="cls-7" x1="201.3" y1="43.03" x2="187.1" y2="49.91"/>
        </g>
        <g id="differentmagazine-6" data-name="differentmagazine">
          <line id="movingline-11" data-name="movingline" class="cls-4" x1="167.96" y1="60.36" x2="167.96" y2="32.58"/>
          <rect class="cls-6" x="130.32" y="39.1" width="30.46" height="14.74"/>
          <line id="movingline-12" data-name="movingline" class="cls-6" x1="135.36" y1="51.08" x2="135.36" y2="41.86"/>
          <rect class="cls-7" x="142.29" y="43.03" width="14.21" height="6.87"/>
          <line class="cls-7" x1="156.5" y1="43.03" x2="142.29" y2="49.91"/>
        </g>
        <g id="differentmagazine-7" data-name="differentmagazine">
          <line id="movingline-13" data-name="movingline" class="cls-4" x1="123.16" y1="60.36" x2="123.16" y2="32.58"/>
        </g>
      </g>
      <polygon class="cls-3" points="4.8 86.44 195.66 86.44 141.06 4.8 4.8 4.8 4.8 86.44"/>
      <g>
        <path class="cls-5" d="M22.73,22.3V59.22c0,3.71,1.25,6,4.43,6s4.33-2.37,4.33-6V22.3H38V59.08c0,7.52-3.4,12-10.93,12-7.23,0-10.76-4-10.76-11.94V22.3Z"/>
        <path class="cls-5" d="M44.48,70.4V22.3H52c2.2,7.68,8.34,32,9,35.17h.1c-.32-6.15-.36-12.92-.36-20.8V22.3h6V70.4H59.45c-2-7.13-8.56-33.55-9.22-36.33h-.08c.34,5.81.38,12.82.38,21.48V70.4Z"/>
        <path class="cls-5" d="M73.5,22.3h9.63c10.28,0,12.27,5.76,12.27,14.15V55.12C95.4,62.49,94.19,70.4,83,70.4H73.5ZM80,64.87h2.6c5.27,0,6.28-3.2,6.28-8.74V35.85c0-4.9-.87-8-6.29-8H80Z"/>
        <path class="cls-5" d="M118.28,47.87H107.61v16.6h12.22L119,70.4H101.16V22.3h17.72v6H107.61V41.94h10.67Z"/>
        <path class="cls-5" d="M130.06,48.49V70.4h-6.45V22.3h9.49c7.27,0,11.27,3,11.27,11.37v2c0,7-2.72,9.24-4.89,10.07,2.91,1.24,4.43,3.38,4.43,9.86,0,4.08-.07,11.84.46,14.81h-6.25c-.63-3-.51-10.92-.51-14.37,0-6-.8-7.54-5.3-7.54Zm0-5.38h2.31c4.19,0,5.53-2,5.53-7.16V34.09c0-4-1-6.42-5.41-6.42h-2.43Z"/>
      </g>
      <g id="magazine" class="fademe">
        <line id="movingline-14" data-name="movingline" class="cls-4" x1="436.77" y1="60.36" x2="436.77" y2="32.58"/>
        <rect class="cls-6" x="399.14" y="39.1" width="30.46" height="14.74"/>
        <line id="movingline-15" data-name="movingline" class="cls-6" x1="404.18" y1="51.08" x2="404.18" y2="41.86"/>
        <rect class="cls-7" x="411.11" y="43.03" width="14.21" height="6.87"/>
        <line class="cls-7" x1="425.32" y1="43.03" x2="411.11" y2="49.91"/>
      </g>
    </g>
  </g>
</svg>
