<svg xmlns="http://www.w3.org/2000/svg" width="100.65" height="81.78" viewBox="0 0 100.65 81.78">
  <defs>
    <style>
      .cls-1 {
        fill: #fff;
      }

      .cls-1, .cls-2, .cls-3, .cls-5, .cls-6 {
        stroke: #da1f35;
        stroke-miterlimit: 10;
      }

      .cls-1, .cls-2 {
        stroke-width: 3.2px;
      }

      .cls-2, .cls-3, .cls-5, .cls-6 {
        fill: none;
      }

      .cls-3, .cls-6 {
        stroke-width: 3px;
      }

      .cls-4 {
        fill: #da1f35;
      }

      .cls-5 {
        stroke-width: 2px;
      }

      .cls-6 {
        stroke-linecap: round;
      }
	  
	  #pageline { animation: flip 4s ease infinite; }
	  
	  .hand1, .hand2 { animation: rotate linear infinite; transform-origin: 74.69px 54.08px; }
	  
	  .hand1 { animation-duration: 24s; }
	  
	  .hand2 { animation-duration: 2s; }
	  
	  #Layer_2 { animation: pageflip 4s ease-in infinite; }
	  #Layer_3 { animation: pageflip2 4s ease infinite; }
	  
	  @keyframes rotate { to { transform: rotate(359.9deg); } }
	  
	  @keyframes flip { 50%, 100% { transform: translateX(-96.8%); } }
	  
	  @keyframes pageflip { 
	    0% { transform: translateX(0%) scaleX(100%); filter: brightness(1); }
	    14%, 100% { transform: translateX(50%) scaleX(0%); filter: brightness(0.8); }
	  }
	  
	  @keyframes pageflip2 { 
	    0%, 11.5% { transform: translateX(50%) scaleX(0%); filter: brightness(0.8); }
	    50%, 100% { transform: translateX(0%) scaleX(100%); filter: brightness(1); }
	  }
	  
    </style>
  </defs>
  <g id="Layer_1" data-name="Layer 1">
    <rect id="bgrectangle" class="cls-1" x="1.6" y="1.6" width="97.45" height="78.58"/>
    <circle class="cls-3" cx="74.69" cy="54.08" r="16.52"/>
    <rect class="cls-4" x="28.93" y="54.53" width="17.03" height="20.72"/>
    <rect class="cls-4" x="6.25" y="32.63" width="3.81" height="4.8"/>
    <rect class="cls-4" x="88.51" y="23.43" width="2.7" height="3.45"/>
    <rect class="cls-4" x="83.74" y="23.43" width="2.7" height="3.45"/>
    <rect class="cls-4" x="78.98" y="23.43" width="2.7" height="3.45"/>
    <g>
      <path class="cls-4" d="M72.62,25.4h2.65V42.77h5L80,45.14H72.62Z" transform="translate(-66.38 -18.25)"/>
      <path class="cls-4" d="M90.31,30.47V40c0,3.65-1.54,5.42-4.71,5.42S81.15,43.54,81.15,40V30.46c0-3.6,1.74-5.34,4.62-5.34S90.31,27,90.31,30.47Zm-6.46-.21V40.32c0,1.89.68,2.71,1.87,2.71s1.89-.78,1.89-2.77v-10c0-1.79-.58-2.71-1.9-2.71S83.85,28.39,83.85,30.26Z" transform="translate(-66.38 -18.25)"/>
      <path class="cls-4" d="M95,39.43l-.8,5.71H91.5L94.7,25.4h3.76l3.33,19.74H99l-.88-5.71ZM97.82,37c-.55-3.78-1-7-1.22-9.11h-.1c-.08,1.59-.72,5.9-1.17,9.11Z" transform="translate(-66.38 -18.25)"/>
      <path class="cls-4" d="M103.34,25.4h4c4.21,0,5,2.37,5,5.81v7.66c0,3-.49,6.27-5.09,6.27h-3.9ZM106,42.87h1.07c2.16,0,2.57-1.31,2.57-3.58V31c0-2-.35-3.27-2.58-3.27H106Z" transform="translate(-66.38 -18.25)"/>
      <path class="cls-4" d="M121.51,45.14V25.4h3.1c.9,3.15,3.42,13.15,3.68,14.43h0c-.13-2.52-.15-5.3-.15-8.53V25.4h2.46V45.14h-3c-.8-2.93-3.51-13.77-3.78-14.91h0c.14,2.39.15,5.26.15,8.82v6.09Z" transform="translate(-66.38 -18.25)"/>
      <path class="cls-4" d="M141.91,45.14h-2.07a14.16,14.16,0,0,1-.15-1.58,2.87,2.87,0,0,1-2.94,1.86c-2.84,0-3.75-2.07-3.75-5.33V30.56c0-3.23,1.27-5.44,4.49-5.44,3.85,0,4.36,2.79,4.36,5.07v.59H139.2v-.69c0-1.19-.15-2.55-1.72-2.55-1.22,0-1.79.8-1.79,2.66V40.33c0,1.74.48,2.74,1.72,2.74,1.53,0,1.85-1.35,1.85-3.58v-3h-1.93V34.21h4.58Z" transform="translate(-66.38 -18.25)"/>
    </g>
    <line class="cls-5" x1="12.25" y1="33.64" x2="45.96" y2="33.64"/>
    <line class="cls-5" x1="6.25" y1="40.81" x2="45.96" y2="40.81"/>
    <line class="cls-5" x1="6.25" y1="47.98" x2="36.97" y2="47.98"/>
    <line class="cls-5" x1="6.25" y1="59.91" x2="22.36" y2="59.91"/>
    <line class="cls-5" x1="6.25" y1="74.25" x2="26.1" y2="74.25"/>
    <line class="cls-5" x1="6.25" y1="67.08" x2="26.1" y2="67.08"/>
    <line class="hand2 cls-6" x1="74.69" y1="41.89" x2="74.69" y2="54.08"/>
    <line class="hand1 cls-6" x1="74.69" y1="46.5" x2="74.69" y2="54.08"/>
  </g>
  <g id="Layer_2" data-name="Layer 2">
    <rect id="pagerectangle" class="cls-1" x="50.32" y="1.6" width="48.72" height="78.58"/>
    <circle class="cls-3" cx="74.69" cy="54.08" r="16.52"/>
    <rect class="cls-4" x="88.51" y="23.43" width="2.7" height="3.45"/>
    <rect class="cls-4" x="83.74" y="23.43" width="2.7" height="3.45"/>
    <rect class="cls-4" x="78.98" y="23.43" width="2.7" height="3.45"/>
    <path class="cls-4" d="M121.51,45.14V25.4h3.1c.9,3.15,3.42,13.15,3.68,14.43h0c-.13-2.52-.15-5.3-.15-8.53V25.4h2.46V45.14h-3c-.8-2.93-3.51-13.77-3.78-14.91h0c.14,2.39.15,5.26.15,8.82v6.09Z" transform="translate(-66.38 -18.25)"/>
    <path class="cls-4" d="M141.91,45.14h-2.07a14.16,14.16,0,0,1-.15-1.58,2.87,2.87,0,0,1-2.94,1.86c-2.84,0-3.75-2.07-3.75-5.33V30.56c0-3.23,1.27-5.44,4.49-5.44,3.85,0,4.36,2.79,4.36,5.07v.59H139.2v-.69c0-1.19-.15-2.55-1.72-2.55-1.22,0-1.79.8-1.79,2.66V40.33c0,1.74.48,2.74,1.72,2.74,1.53,0,1.85-1.35,1.85-3.58v-3h-1.93V34.21h4.58Z" transform="translate(-66.38 -18.25)"/>
    <line class="hand2 cls-6" x1="74.69" y1="41.89" x2="74.69" y2="54.08"/>
    <line class="hand1 cls-6" x1="74.69" y1="46.5" x2="74.69" y2="54.08"/>
  </g>
  <g id="Layer_3" data-name="Layer 3">
    <rect id="pagerectangle-2" data-name="pagerectangle" class="cls-1" x="1.6" y="1.6" width="48.72" height="78.58"/>
    <rect class="cls-4" x="28.93" y="54.53" width="17.03" height="20.72"/>
    <rect class="cls-4" x="6.25" y="32.63" width="3.81" height="4.8"/>
    <path class="cls-4" d="M72.62,25.4h2.65V42.77h5L80,45.14H72.62Z" transform="translate(-66.38 -18.25)"/>
    <path class="cls-4" d="M90.31,30.47V40c0,3.65-1.54,5.42-4.71,5.42S81.15,43.54,81.15,40V30.46c0-3.6,1.74-5.34,4.62-5.34S90.31,27,90.31,30.47Zm-6.46-.21V40.32c0,1.89.68,2.71,1.87,2.71s1.89-.78,1.89-2.77v-10c0-1.79-.58-2.71-1.9-2.71S83.85,28.39,83.85,30.26Z" transform="translate(-66.38 -18.25)"/>
    <path class="cls-4" d="M95,39.43l-.8,5.71H91.5L94.7,25.4h3.76l3.33,19.74H99l-.88-5.71ZM97.82,37c-.55-3.78-1-7-1.22-9.11h-.1c-.08,1.59-.72,5.9-1.17,9.11Z" transform="translate(-66.38 -18.25)"/>
    <path class="cls-4" d="M103.34,25.4h4c4.21,0,5,2.37,5,5.81v7.66c0,3-.49,6.27-5.09,6.27h-3.9ZM106,42.87h1.07c2.16,0,2.57-1.31,2.57-3.58V31c0-2-.35-3.27-2.58-3.27H106Z" transform="translate(-66.38 -18.25)"/>
    <line class="cls-5" x1="12.25" y1="33.64" x2="45.96" y2="33.64"/>
    <line class="cls-5" x1="6.25" y1="40.81" x2="45.96" y2="40.81"/>
    <line class="cls-5" x1="6.25" y1="47.98" x2="36.97" y2="47.98"/>
    <line class="cls-5" x1="6.25" y1="59.91" x2="22.36" y2="59.91"/>
    <line class="cls-5" x1="6.25" y1="74.25" x2="26.1" y2="74.25"/>
    <line class="cls-5" x1="6.25" y1="67.08" x2="26.1" y2="67.08"/>
  </g>
    <line class="cls-2" x1="50.32" y1="80.18" x2="50.32" y2="1.6"/>
    <line id="pageline" class="cls-2" x1="99.05" y1="1.6" x2="99.05" y2="80.18"/>
    <rect id="fgrectangle" class="cls-1" x="1.6" y="1.6" width="97.45" height="78.58" fill-opacity="0"/><!-- (To block some weird white shown in pageflip2.) -->
</svg>
