<svg xmlns="http://www.w3.org/2000/svg" width="100.65" height="81.78" viewBox="0 0 100.65 81.78">
  <defs>
    <style>
      .cls-1 {
        fill: #fff;
      }

      .cls-1, .cls-2, .cls-3, .cls-5, .cls-6, .cls-7 {
        stroke: #da1f35;
        stroke-miterlimit: 10;
      }

      .cls-1, .cls-2 {
        stroke-width: 3.2px;
      }

      .cls-2, .cls-3, .cls-5, .cls-6, .cls-7 {
        fill: none;
      }

      .cls-3, .cls-5 {
        stroke-width: 3px;
      }

      .cls-4 {
        fill: #da1f35;
      }

      .cls-5, .cls-6 {
        stroke-linecap: round;
      }

      .cls-6, .cls-7 {
        stroke-width: 2px;
      }
	  
	  #pageline { animation: flip 1s ease forwards reverse; opacity: 0; }
	  
	  #hand1, #hand2 { animation: rotate ease-in infinite; transform-origin: 74.69px 54.08px; }
	  
	  #hand1 { animation-duration: 1.5s; }
	  
	  #hand2 { animation-duration: 0.18s; }
	  
	  #Layer_2 { animation: pageflip 1s ease-in forwards reverse; }
	  #Layer_3 { animation: pageflip2 1s ease forwards reverse; }
	  
	  @keyframes rotate { to { transform: rotate(-359.9deg); } }
	  
	  @keyframes flip {
		50% { transform: translateX(-50%); opacity: 0; }
		100% { transform: translateX(-96.8%); animation-timing-function: ease-out; opacity: 1; }
	  }
	  
	  @keyframes pageflip { 
	    0% { transform: translateX(0%) scaleX(100%); filter: brightness(1); }
	    50%, 100% { transform: translateX(50%) scaleX(0%); filter: brightness(0.8); }
	  }
	  
	  @keyframes pageflip2 { 
	    0%, 50% { transform: translateX(50%) scaleX(0%); filter: brightness(0.8); }
	    100% { transform: translateX(0%) scaleX(100%); filter: brightness(1); }
	  }
	  
	  svg { animation: slide 2s ease forwards; }
	  
	  @keyframes slide {
		to { transform: translateX(-25%); }
	  }
	  
    </style>
  </defs>
  <g id="Layer_1" data-name="Layer 1">
    <rect id="bgrectangle" class="cls-1" x="50.32" y="1.6" width="48.72" height="78.58"/>
    <line class="cls-2" x1="50.32" y1="80.18" x2="50.32" y2="1.6"/>
    <circle class="cls-3" cx="74.69" cy="54.08" r="16.52"/>
    <rect class="cls-4" x="88.51" y="23.43" width="2.7" height="3.45"/>
    <rect class="cls-4" x="83.74" y="23.43" width="2.7" height="3.45"/>
    <rect class="cls-4" x="78.98" y="23.43" width="2.7" height="3.45"/>
    <g>
      <path class="cls-4" d="M121.51,45.14V25.4h3.1c.9,3.15,3.42,13.15,3.68,14.43h0c-.13-2.52-.15-5.3-.15-8.53V25.4h2.46V45.14h-3c-.8-2.93-3.51-13.77-3.78-14.91h0c.14,2.39.15,5.26.15,8.82v6.09Z" transform="translate(-66.38 -18.25)"/>
      <path class="cls-4" d="M141.91,45.14h-2.07a14.16,14.16,0,0,1-.15-1.58,2.87,2.87,0,0,1-2.94,1.86c-2.84,0-3.75-2.07-3.75-5.33V30.56c0-3.23,1.27-5.44,4.49-5.44,3.85,0,4.36,2.79,4.36,5.07v.59H139.2v-.69c0-1.19-.15-2.55-1.72-2.55-1.22,0-1.79.8-1.79,2.66V40.33c0,1.74.48,2.74,1.72,2.74,1.53,0,1.85-1.35,1.85-3.58v-3h-1.93V34.21h4.58Z" transform="translate(-66.38 -18.25)"/>
    </g>
    <line id="hand2" class="cls-5" x1="74.69" y1="41.89" x2="74.69" y2="54.08"/>
    <line id="hand1" class="cls-5" x1="74.69" y1="46.5" x2="74.69" y2="54.08"/>
  </g>
  <g id="Layer_2" data-name="Layer 2">
    <rect id="pagerectangle" class="cls-1" x="50.32" y="1.6" width="48.72" height="78.58"/>
    <path class="cls-4" d="M137.71,63.31c.72,0,1.27.52,1.52,1.47l2.37,9.35c0,.17.1.34.13.52.08.46.32.74.77.74h.08c.41,0,.6-.48.48-1.09s-.31-1.16-.44-1.74a1.22,1.22,0,0,1,.77-1.6,1.18,1.18,0,0,1,.31,0A1.34,1.34,0,0,1,144.93,72c.23.84.43,1.69.64,2.53.06.21.11.41.17.61a.58.58,0,0,0,.56.47l.2,0a.6.6,0,0,0,.51-.8c-.11-.44-.24-.88-.33-1.32a1.19,1.19,0,0,1,.85-1.54,1.64,1.64,0,0,1,.37,0c.52,0,.91.34,1.1,1s.41,1.57.61,2.35c.1.38.27.7.65.7l.22,0c.53-.14.6-.53.46-1-.06-.21-.11-.41-.15-.62a1.27,1.27,0,0,1,.88-1.47,1.24,1.24,0,0,1,.27,0,1.14,1.14,0,0,1,1.11.89,68.75,68.75,0,0,1,1.72,7.18A6.21,6.21,0,0,1,152,87.14a8.87,8.87,0,0,1-5,1.67,8.06,8.06,0,0,1-3.7-.94,8.6,8.6,0,0,1-1.61-1.15c-2.65-2.3-5.28-4.62-7.91-6.93-.23-.2-.46-.4-.67-.61a1.56,1.56,0,0,1-.26-2.3,1.43,1.43,0,0,1,1.06-.52,1.93,1.93,0,0,1,1.24.55c1,.89,2,1.8,3,2.69.16.14.3.34.48.41a1.77,1.77,0,0,0,.55.13.38.38,0,0,0,.19,0,1.19,1.19,0,0,0,.39-.72,1.8,1.8,0,0,0-.15-.7c-.55-2.18-1.1-4.37-1.66-6.55l-1.68-6.64c-.28-1.13.1-1.89,1-2.12a1.81,1.81,0,0,1,.39,0m0-2h0a3.69,3.69,0,0,0-.86.11,3.34,3.34,0,0,0-2.16,1.52,3.84,3.84,0,0,0-.35,3c.4,1.59.81,3.18,1.21,4.77l.48,1.87.27,1.07.51,2-.36-.32a3.85,3.85,0,0,0-2.55-1,3.4,3.4,0,0,0-2.56,1.2,3.56,3.56,0,0,0,.35,5c.23.23.47.44.71.65l0,0,1.81,1.59q3,2.69,6.11,5.35a11,11,0,0,0,2,1.42A10.1,10.1,0,0,0,147,90.81a10.81,10.81,0,0,0,6.08-2,8.22,8.22,0,0,0,3.68-8.26A46.72,46.72,0,0,0,155.48,75c-.17-.61-.34-1.22-.5-1.84a3.11,3.11,0,0,0-3-2.39,3.53,3.53,0,0,0-.72.08,3,3,0,0,0-.83.33,3,3,0,0,0-2.49-1.31A3.33,3.33,0,0,0,147,70a3,3,0,0,0-.74.29,3.2,3.2,0,0,0-2.58-1.36,2.8,2.8,0,0,0-.86.13,3.12,3.12,0,0,0-.43.15c-.41-1.63-.83-3.27-1.25-4.9a3.58,3.58,0,0,0-3.45-3Z" transform="translate(-66.38 -18.25)"/>
    <line class="cls-6" x1="62.38" y1="41.15" x2="66.44" y2="43.78"/>
    <line class="cls-6" x1="81.84" y1="44.72" x2="77.11" y2="45.74"/>
    <line class="cls-6" x1="60.9" y1="49.21" x2="65.63" y2="48.19"/>
    <line class="cls-6" x1="69.13" y1="36.49" x2="70.14" y2="41.22"/>
    <line class="cls-6" x1="77.19" y1="37.97" x2="74.56" y2="42.04"/>
    <g>
      <path class="cls-4" d="M120.9,26.3h3.34c2.87,0,4,1.29,4,3.56v.64c0,2.25-.81,2.92-1.61,3.21.84.28,1.94.94,1.94,3.2V38.1c0,2.73-1.15,4.14-4.14,4.14h-3.5ZM124,32.89c1.52,0,2-.49,2-2.18v-.66c0-1.38-.54-2-1.91-2h-.94v4.81Zm-.87,7.58h1c1.69,0,2.1-.71,2.1-2.42V37c0-1.63-.52-2.33-2.22-2.33h-.86Z" transform="translate(-66.38 -18.25)"/>
      <path class="cls-4" d="M136.53,34.77h-3.85v5.5h4.4l-.3,2h-6.43V26.3h6.39v2h-4.06V32.8h3.85Z" transform="translate(-66.38 -18.25)"/>
      <path class="cls-4" d="M146.15,42.24h-1.83a11.76,11.76,0,0,1-.13-1.28,2.55,2.55,0,0,1-2.59,1.5c-2.49,0-3.3-1.67-3.3-4.31V30.46c0-2.61,1.13-4.39,4-4.39,3.38,0,3.84,2.25,3.84,4.1v.47h-2.33v-.56c0-1-.14-2.06-1.52-2.06-1.08,0-1.57.65-1.57,2.15v8.18c0,1.4.42,2.21,1.51,2.21,1.35,0,1.62-1.08,1.62-2.89V35.25h-1.69V33.41h4Z" transform="translate(-66.38 -18.25)"/>
      <path class="cls-4" d="M150.74,26.3V42.24h-2.33V26.3Z" transform="translate(-66.38 -18.25)"/>
      <path class="cls-4" d="M153.19,42.24V26.3h2.73c.79,2.54,3,10.61,3.23,11.65h0c-.12-2-.13-4.28-.13-6.89V26.3h2.16V42.24H158.6c-.71-2.37-3.1-11.12-3.33-12h0c.12,1.92.14,4.25.14,7.12v4.92Z" transform="translate(-66.38 -18.25)"/>
    </g>
    <line class="cls-7" x1="62.94" y1="29.5" x2="86.44" y2="29.5"/>
  </g>
  <g id="Layer_3" data-name="Layer 3">
    <rect id="pagerectangle-2" data-name="pagerectangle" class="cls-1" x="1.6" y="1.6" width="48.72" height="78.58"/>
    <rect class="cls-4" x="28.93" y="54.53" width="17.03" height="20.72"/>
    <rect class="cls-4" x="6.25" y="32.63" width="3.81" height="4.8"/>
    <path class="cls-4" d="M72.62,25.4h2.65V42.77h5L80,45.14H72.62Z" transform="translate(-66.38 -18.25)"/>
    <path class="cls-4" d="M90.31,30.47V40c0,3.65-1.54,5.42-4.71,5.42S81.15,43.54,81.15,40V30.46c0-3.6,1.74-5.34,4.62-5.34S90.31,27,90.31,30.47Zm-6.46-.21V40.32c0,1.89.68,2.71,1.87,2.71s1.89-.78,1.89-2.77v-10c0-1.79-.58-2.71-1.9-2.71S83.85,28.39,83.85,30.26Z" transform="translate(-66.38 -18.25)"/>
    <path class="cls-4" d="M95,39.43l-.8,5.71H91.5L94.7,25.4h3.76l3.33,19.74H99l-.88-5.71ZM97.82,37c-.55-3.78-1-7-1.22-9.11h-.1c-.08,1.59-.72,5.9-1.17,9.11Z" transform="translate(-66.38 -18.25)"/>
    <path class="cls-4" d="M103.34,25.4h4c4.21,0,5,2.37,5,5.81v7.66c0,3-.49,6.27-5.09,6.27h-3.9ZM106,42.87h1.07c2.16,0,2.57-1.31,2.57-3.58V31c0-2-.35-3.27-2.58-3.27H106Z" transform="translate(-66.38 -18.25)"/>
    <line class="cls-7" x1="12.25" y1="33.64" x2="45.96" y2="33.64"/>
    <line class="cls-7" x1="6.25" y1="40.81" x2="45.96" y2="40.81"/>
    <line class="cls-7" x1="6.25" y1="47.98" x2="36.97" y2="47.98"/>
    <line class="cls-7" x1="6.25" y1="59.91" x2="22.36" y2="59.91"/>
    <line class="cls-7" x1="6.25" y1="74.25" x2="26.1" y2="74.25"/>
    <line class="cls-7" x1="6.25" y1="67.08" x2="26.1" y2="67.08"/>
  </g>
    <line id="pageline" class="cls-2" x1="100" y1="0" x2="100" y2="80.18"/>
</svg>
