<svg xmlns="http://www.w3.org/2000/svg" width="15.37" height="15.37" viewBox="0 0 15.37 15.37">
  <defs>
    <style>
      .cls-1, .cls-3 {
        fill: none;
        stroke: #242122;
        stroke-miterlimit: 10;
        stroke-width: 0.35px;
		transform-origin: center;
      }

      .cls-1 {
        stroke-dasharray: 0.95 0.62;
      }

      .cls-2 {
        fill: #242122;
		transform-origin: center;
      }

      .cls-3 {
        stroke-dasharray: 1.1 0.71;
	  }
    </style>
  </defs>
  <g id="Layer_2" data-name="Layer 2">
    <g id="Layer_1-2" data-name="Layer 1">
      <circle class="cls-1" cx="7.69" cy="7.69" r="6.5"/>
      <g>
        <path class="cls-2" d="M12.44,6.68l-.72-.14a.19.19,0,0,1-.17-.14c-.07-.21-.15-.41-.23-.6a.18.18,0,0,1,0-.2L11.75,5a.57.57,0,0,0-.08-.76l-.55-.56a.55.55,0,0,0-.77-.09L9.68,4a.11.11,0,0,1-.14,0c-.2-.09-.41-.19-.62-.27a.14.14,0,0,1-.1-.12l-.15-.75a.58.58,0,0,0-.6-.51H7.31a.59.59,0,0,0-.62.53c-.05.25-.09.5-.15.75a.23.23,0,0,1-.08.11L5.81,4a.12.12,0,0,1-.15,0L5,3.55a1.09,1.09,0,0,0-.33-.11.58.58,0,0,0-.42.18L3.7,4.2A.59.59,0,0,0,3.62,5c.14.23.28.46.43.69a.15.15,0,0,1,0,.16c-.09.2-.17.4-.25.61a.14.14,0,0,1-.13.11l-.76.15a.6.6,0,0,0-.47.57v.87a.56.56,0,0,0,.46.57l.8.18A.14.14,0,0,1,3.8,9c.1.21.18.43.27.65a.14.14,0,0,1,0,.14c-.15.21-.29.43-.43.65a.59.59,0,0,0,.07.78l.56.57a.55.55,0,0,0,.76.08l.68-.44a.1.1,0,0,1,.12,0l.63.28a.13.13,0,0,1,.1.11l.15.8a.58.58,0,0,0,.57.46h.8a.56.56,0,0,0,.6-.5c.06-.26.11-.52.17-.77a.14.14,0,0,1,.09-.12c.21-.08.42-.16.63-.26a.14.14,0,0,1,.15,0l.62.42a.57.57,0,0,0,.79-.08l.55-.56a.58.58,0,0,0,.07-.78l-.42-.68a.13.13,0,0,1,0-.12c.08-.22.18-.44.26-.65a.15.15,0,0,1,.12-.1l.75-.16a.57.57,0,0,0,.48-.58V7.27A.58.58,0,0,0,12.44,6.68ZM7.69,10.89a3.21,3.21,0,1,1,3.2-3.2A3.21,3.21,0,0,1,7.69,10.89Z"/>
        <path class="cls-2" d="M7.69,4.92a2.77,2.77,0,1,0,2.77,2.77A2.77,2.77,0,0,0,7.69,4.92Zm0,4.66A1.89,1.89,0,1,1,9.63,7.69,1.89,1.89,0,0,1,7.74,9.58Z"/>
      </g>
      <circle class="cls-3" cx="7.69" cy="7.69" r="7.51"/>
    </g>
  </g>
</svg>
