<svg xmlns="http://www.w3.org/2000/svg" width="299.89" height="427.16" viewBox="0 0 299.89 427.16"><defs><style>.a{opacity:0.25;}.b{fill:#fff;}</style></defs><g class="a"><path class="b" d="M77.72,91.39H49.82a3,3,0,0,0-3,3v39.13a3,3,0,0,0,3,3h27.9a3,3,0,0,0,3-3V94.39A3,3,0,0,0,77.72,91.39Zm.88,37a3,3,0,0,1-3,3H52a3,3,0,0,1-3-3v-24a3,3,0,0,1,3-3H75.6a3,3,0,0,1,3,3Z"/><path class="b" d="M120.81,91.39H92.91a3,3,0,0,0-3,3v39.13a3,3,0,0,0,3,3h27.9a3,3,0,0,0,3-3V94.39A3,3,0,0,0,120.81,91.39Zm.87,37a3,3,0,0,1-3,3H95a3,3,0,0,1-3-3v-24a3,3,0,0,1,3-3h23.65a3,3,0,0,1,3,3Z"/><path class="b" d="M163.9,91.39H136a3,3,0,0,0-3,3v39.13a3,3,0,0,0,3,3H163.9a3,3,0,0,0,3-3V94.39A3,3,0,0,0,163.9,91.39Zm.87,37a3,3,0,0,1-3,3H138.12a3,3,0,0,1-3-3v-24a3,3,0,0,1,3-3h23.65a3,3,0,0,1,3,3Z"/><path class="b" d="M207,91.39h-27.9a3,3,0,0,0-3,3v39.13a3,3,0,0,0,3,3H207a3,3,0,0,0,3-3V94.39A3,3,0,0,0,207,91.39Zm.88,37a3,3,0,0,1-3,3H181.21a3,3,0,0,1-3-3v-24a3,3,0,0,1,3-3h23.65a3,3,0,0,1,3,3Z"/><path class="b" d="M250.07,91.39h-27.9a3,3,0,0,0-3,3v39.13a3,3,0,0,0,3,3h27.9a3,3,0,0,0,3-3V94.39A3,3,0,0,0,250.07,91.39Zm.87,37a3,3,0,0,1-3,3H224.29a3,3,0,0,1-3-3v-24a3,3,0,0,1,3-3h23.65a3,3,0,0,1,3,3Z"/><rect class="b" x="99.59" y="146.96" width="100.71" height="11.32" rx="3"/><path class="b" d="M141.94,168.72H49.82a3,3,0,0,0-3,3v28.13a3,3,0,0,0,3,3h92.12a3,3,0,0,0,3-3V171.72A3,3,0,0,0,141.94,168.72ZM82.82,197.85a3,3,0,0,1-3,3H52a3,3,0,0,1-3-3V173.9a3,3,0,0,1,3-3H79.82a3,3,0,0,1,3,3Zm46.06-20.31h-30a3,3,0,1,1,0-6h30a3,3,0,0,1,0,6Z"/><path class="b" d="M157.94,168.72h92.13a3,3,0,0,1,3,3v28.13a3,3,0,0,1-3,3H157.94a3,3,0,0,1-3-3V171.72A3,3,0,0,1,157.94,168.72Zm59.13,29.13a3,3,0,0,0,3,3h27.87a3,3,0,0,0,3-3V173.9a3,3,0,0,0-3-3H220.07a3,3,0,0,0-3,3ZM171,177.54h30a3,3,0,0,0,0-6H171a3,3,0,0,0,0,6Z"/><rect class="b" x="99.59" y="213.29" width="100.71" height="11.32" rx="3"/><path class="b" d="M110.81,235.06H62.91a3,3,0,0,0-3,3v39.12a3,3,0,0,0,3,3h47.9a3,3,0,0,0,3-3V238.06A3,3,0,0,0,110.81,235.06Zm.87,36.94a3,3,0,0,1-3,3H65a3,3,0,0,1-3-3V248.05a3,3,0,0,1,3-3h43.65a3,3,0,0,1,3,3Z"/><path class="b" d="M173.9,235.06H126a3,3,0,0,0-3,3v39.12a3,3,0,0,0,3,3H173.9a3,3,0,0,0,3-3V238.06A3,3,0,0,0,173.9,235.06Zm.87,36.94a3,3,0,0,1-3,3H128.12a3,3,0,0,1-3-3V248.05a3,3,0,0,1,3-3h43.65a3,3,0,0,1,3,3Z"/><path class="b" d="M237,235.06h-47.9a3,3,0,0,0-3,3v39.12a3,3,0,0,0,3,3H237a3,3,0,0,0,3-3V238.06A3,3,0,0,0,237,235.06Zm.88,36.94a3,3,0,0,1-3,3H191.21a3,3,0,0,1-3-3V248.05a3,3,0,0,1,3-3h43.65a3,3,0,0,1,3,3Z"/><rect class="b" x="99.59" y="71.13" width="100.71" height="11.32" rx="3"/><rect class="b" x="51.27" y="103.86" width="25" height="25" rx="2"/><rect class="b" x="94.36" y="103.86" width="25" height="25" rx="2"/><rect class="b" x="137.44" y="103.86" width="25" height="25" rx="2"/><rect class="b" x="180.53" y="103.86" width="25" height="25" rx="2"/><rect class="b" x="223.62" y="103.86" width="25" height="25" rx="2"/><rect class="b" x="51.38" y="173.38" width="29" height="25" rx="2"/><rect class="b" x="219.51" y="173.38" width="29" height="25" rx="2"/><rect class="b" x="127.94" y="247.53" width="44" height="25" rx="2"/><rect class="b" x="64.86" y="247.53" width="44" height="25" rx="2"/><rect class="b" x="191.03" y="247.53" width="44" height="25" rx="2"/><path class="b" d="M0,0V62.7H299.89V0ZM114,12.81a3,3,0,0,1,3-3h66a3,3,0,0,1,3,3v5.32a3,3,0,0,1-3,3H117a3,3,0,0,1-3-3ZM199,50.66a5,5,0,0,1-5,5H105.88a5,5,0,0,1-5-5V36.73a5,5,0,0,1,5-5H194a5,5,0,0,1,5,5Z"/><path class="b" d="M77.72,382H49.82a3,3,0,0,0-3,3v39.12a3,3,0,0,0,3,3h27.9a3,3,0,0,0,3-3V385A3,3,0,0,0,77.72,382ZM78.6,419a3,3,0,0,1-3,3H52a3,3,0,0,1-3-3V395a3,3,0,0,1,3-3H75.6a3,3,0,0,1,3,3Z"/><path class="b" d="M120.81,382H92.91a3,3,0,0,0-3,3v39.12a3,3,0,0,0,3,3h27.9a3,3,0,0,0,3-3V385A3,3,0,0,0,120.81,382Zm.87,36.95a3,3,0,0,1-3,3H95a3,3,0,0,1-3-3V395a3,3,0,0,1,3-3h23.65a3,3,0,0,1,3,3Z"/><path class="b" d="M163.9,382H136a3,3,0,0,0-3,3v39.12a3,3,0,0,0,3,3H163.9a3,3,0,0,0,3-3V385A3,3,0,0,0,163.9,382Zm.87,36.95a3,3,0,0,1-3,3H138.12a3,3,0,0,1-3-3V395a3,3,0,0,1,3-3h23.65a3,3,0,0,1,3,3Z"/><path class="b" d="M207,382h-27.9a3,3,0,0,0-3,3v39.12a3,3,0,0,0,3,3H207a3,3,0,0,0,3-3V385A3,3,0,0,0,207,382Zm.88,36.95a3,3,0,0,1-3,3H181.21a3,3,0,0,1-3-3V395a3,3,0,0,1,3-3h23.65a3,3,0,0,1,3,3Z"/><path class="b" d="M250.07,382h-27.9a3,3,0,0,0-3,3v39.12a3,3,0,0,0,3,3h27.9a3,3,0,0,0,3-3V385A3,3,0,0,0,250.07,382Zm.87,36.95a3,3,0,0,1-3,3H224.29a3,3,0,0,1-3-3V395a3,3,0,0,1,3-3h23.65a3,3,0,0,1,3,3Z"/><rect class="b" x="99.59" y="361.78" width="100.71" height="11.32" rx="3"/><rect class="b" x="51.27" y="394.51" width="25" height="25" rx="2"/><rect class="b" x="94.36" y="394.51" width="25" height="25" rx="2"/><rect class="b" x="137.44" y="394.51" width="25" height="25" rx="2"/><rect class="b" x="180.53" y="394.51" width="25" height="25" rx="2"/><rect class="b" x="223.62" y="394.51" width="25" height="25" rx="2"/><path class="b" d="M0,290.65v62.69H299.89V290.65Zm114,12.81a3,3,0,0,1,3-3h66a3,3,0,0,1,3,3v5.32a3,3,0,0,1-3,3H117a3,3,0,0,1-3-3ZM199,341.31a5,5,0,0,1-5,5H105.88a5,5,0,0,1-5-5V327.38a5,5,0,0,1,5-5H194a5,5,0,0,1,5,5Z"/></g></svg>