<svg xmlns="http://www.w3.org/2000/svg" width="155.71" height="214.39" viewBox="0 0 155.71 214.39"><defs><style>.a,.c{opacity:0.25;}.b,.c{fill:#fff;}</style></defs><g class="a"><rect class="b" x="15.85" y="177.19" width="25" height="25" rx="3"/><rect class="b" x="48.85" y="177.19" width="25" height="25" rx="3"/><rect class="b" x="81.85" y="177.19" width="25" height="25" rx="3"/><rect class="b" x="114.85" y="177.19" width="25" height="25" rx="3"/><rect class="b" x="15.85" y="144.19" width="25" height="25" rx="3"/><rect class="b" x="48.85" y="144.19" width="25" height="25" rx="3"/><rect class="b" x="81.85" y="144.19" width="25" height="25" rx="3"/><rect class="b" x="114.85" y="144.19" width="25" height="25" rx="3"/><rect class="b" x="15.85" y="111.19" width="25" height="25" rx="3"/><rect class="b" x="48.85" y="111.19" width="25" height="25" rx="3"/><rect class="b" x="81.85" y="111.19" width="25" height="25" rx="3"/><rect class="b" x="114.85" y="111.19" width="25" height="25" rx="3"/><rect class="b" x="15.85" y="78.19" width="25" height="25" rx="3"/><rect class="b" x="48.85" y="78.19" width="25" height="25" rx="3"/><rect class="b" x="81.85" y="78.19" width="25" height="25" rx="3"/><rect class="b" x="114.85" y="78.19" width="25" height="25" rx="3"/><rect class="b" x="15.85" y="45.19" width="25" height="25" rx="3"/><rect class="b" x="48.85" y="45.19" width="25" height="25" rx="3"/><rect class="b" x="81.85" y="45.19" width="25" height="25" rx="3"/><rect class="b" x="114.85" y="45.19" width="25" height="25" rx="3"/><rect class="b" x="15.85" y="12.19" width="25" height="25" rx="3"/><rect class="b" x="48.85" y="12.19" width="25" height="25" rx="3"/><rect class="b" x="81.85" y="12.19" width="25" height="25" rx="3"/><rect class="b" x="114.85" y="12.19" width="25" height="25" rx="3"/></g><rect class="c" width="5.85" height="214.39"/><rect class="c" x="121.51" y="-219.69" width="5.85" height="214.39" transform="translate(277.21 -5.31) rotate(180)"/></svg>