<svg xmlns="http://www.w3.org/2000/svg" width="124" height="190" viewBox="0 0 124 190"><defs><style>.a{opacity:0.25;}.b{fill:#fff;}</style></defs><g class="a"><rect class="b" y="165" width="25" height="25" rx="3"/><rect class="b" x="33" y="165" width="25" height="25" rx="3"/><rect class="b" x="66" y="165" width="25" height="25" rx="3"/><rect class="b" x="99" y="165" width="25" height="25" rx="3"/><rect class="b" y="132" width="25" height="25" rx="3"/><rect class="b" x="33" y="132" width="25" height="25" rx="3"/><rect class="b" x="66" y="132" width="25" height="25" rx="3"/><rect class="b" x="99" y="132" width="25" height="25" rx="3"/><rect class="b" y="99" width="25" height="25" rx="3"/><rect class="b" x="33" y="99" width="25" height="25" rx="3"/><rect class="b" x="66" y="99" width="25" height="25" rx="3"/><rect class="b" x="99" y="99" width="25" height="25" rx="3"/><rect class="b" y="66" width="25" height="25" rx="3"/><rect class="b" x="33" y="66" width="25" height="25" rx="3"/><rect class="b" x="66" y="66" width="25" height="25" rx="3"/><rect class="b" x="99" y="66" width="25" height="25" rx="3"/><rect class="b" y="33" width="25" height="25" rx="3"/><rect class="b" x="33" y="33" width="25" height="25" rx="3"/><rect class="b" x="66" y="33" width="25" height="25" rx="3"/><rect class="b" x="99" y="33" width="25" height="25" rx="3"/><rect class="b" width="25" height="25" rx="3"/><rect class="b" x="33" width="25" height="25" rx="3"/><rect class="b" x="66" width="25" height="25" rx="3"/><rect class="b" x="99" width="25" height="25" rx="3"/></g></svg>