<svg xmlns="http://www.w3.org/2000/svg" width="169.76" height="132.07" viewBox="0 0 169.76 132.07">
  <g id="Layer_2" data-name="Layer 2">
    <g id="Layer_1-2" data-name="Layer 1">
      <path d="M167.53,29V22.11a9.45,9.45,0,0,0-9.45-9.45H126.62L112.68,1.5H160A9.45,9.45,0,0,1,169.41,11V29Z" style="fill: #fff"/>
      <rect x="1.5" y="1.5" width="166.76" height="36.95" rx="10" style="fill: none;stroke: #fff;stroke-miterlimit: 10;stroke-width: 3px"/>
      <path d="M158.08,38.45H14A9.46,9.46,0,0,1,4.53,29V11A9.45,9.45,0,0,1,14,1.5h98.7l13.94,11.16h31.46a9.45,9.45,0,0,1,9.45,9.45V29A9.46,9.46,0,0,1,158.08,38.45Z" style="fill: none;stroke: #fff;stroke-miterlimit: 10;stroke-width: 3px"/>
      <path d="M167.53,75.05V68.17a9.45,9.45,0,0,0-9.45-9.45H126.62L112.68,47.56H160A9.45,9.45,0,0,1,169.41,57v18Z" style="fill: #fff"/>
      <rect x="1.5" y="47.56" width="166.76" height="36.95" rx="10" style="fill: none;stroke: #fff;stroke-miterlimit: 10;stroke-width: 3px"/>
      <path d="M158.08,84.51H14a9.45,9.45,0,0,1-9.45-9.46V57A9.45,9.45,0,0,1,14,47.56h98.7l13.94,11.16h31.46a9.45,9.45,0,0,1,9.45,9.45v6.88A9.45,9.45,0,0,1,158.08,84.51Z" style="fill: none;stroke: #fff;stroke-miterlimit: 10;stroke-width: 3px"/>
      <path d="M167.53,121.12v-6.89a9.45,9.45,0,0,0-9.45-9.45H126.62L112.68,93.62H160a9.46,9.46,0,0,1,9.45,9.46v18Z" style="fill: #fff"/>
      <rect x="1.5" y="93.62" width="166.76" height="36.95" rx="10" style="fill: none;stroke: #fff;stroke-miterlimit: 10;stroke-width: 3px"/>
      <path d="M158.08,130.57H14a9.45,9.45,0,0,1-9.45-9.45v-18A9.46,9.46,0,0,1,14,93.62h98.7l13.94,11.16h31.46a9.45,9.45,0,0,1,9.45,9.45v6.89A9.45,9.45,0,0,1,158.08,130.57Z" style="fill: none;stroke: #fff;stroke-miterlimit: 10;stroke-width: 3px"/>
      <line x1="123.61" y1="28.51" x2="157.61" y2="28.51" style="fill: none;stroke: #fff;stroke-linecap: round;stroke-miterlimit: 10;stroke-width: 8px"/>
    </g>
  </g>
</svg>
