<svg xmlns="http://www.w3.org/2000/svg" width="100.61" height="132.07" viewBox="0 0 100.61 132.07"><defs><style>.a{fill:none;stroke:#fff;stroke-miterlimit:10;stroke-width:3px;}.b{fill:#fff;}</style></defs><path class="a" d="M16.5,1.5H84.11a15,15,0,0,1,15,15v99.07a15,15,0,0,1-15,15H6.5a5,5,0,0,1-5-5V16.5a15,15,0,0,1,15-15Z"/><path class="b" d="M1.5,104.87v20.7a4.92,4.92,0,0,0,4.84,5H84.59a14.76,14.76,0,0,0,14.52-15v-10.7ZM70,123.38H6.84a1.5,1.5,0,0,1,0-3H70a1.5,1.5,0,0,1,0,3Zm0-8H6.84a1.5,1.5,0,0,1,0-3H70a1.5,1.5,0,0,1,0,3Zm15.06,9.83a8,8,0,1,1,8-8A8,8,0,0,1,85.07,125.22Z"/><path class="b" d="M84.59,1.5H16A14.77,14.77,0,0,0,1.5,16.5V37.07H99.11V16.5A14.77,14.77,0,0,0,84.59,1.5ZM18.93,9.12H81.3a4,4,0,0,1,0,8H18.93a4,4,0,0,1,0-8ZM29.71,30.65H6.61a1.5,1.5,0,1,1,0-3h23.1a1.5,1.5,0,0,1,0,3Zm33,0H37.83a1.5,1.5,0,0,1,0-3H62.68a1.5,1.5,0,1,1,0,3Zm31.23,0H70.81a1.5,1.5,0,0,1,0-3h23.1a1.5,1.5,0,0,1,0,3Z"/></svg>