<svg xmlns="http://www.w3.org/2000/svg" width="438.25" height="37.46" viewBox="0 0 438.25 37.46">
  <g id="Layer_2" data-name="Layer 2">
    <g id="Layer_1-2" data-name="Layer 1">
      <g style="opacity: 0.25">
        <polygon points="320.21 2.21 320.21 37.46 326.88 35.25 326.88 0 320.21 2.21" style="fill: #fff"/>
        <polygon points="306.29 2.21 306.29 37.46 312.95 35.25 312.95 0 306.29 2.21" style="fill: #fff"/>
        <polygon points="292.37 2.21 292.37 37.46 299.03 35.25 299.03 0 292.37 2.21" style="fill: #fff"/>
        <polygon points="278.44 2.21 278.44 37.46 285.11 35.25 285.11 0 278.44 2.21" style="fill: #fff"/>
        <polygon points="264.52 2.21 264.52 37.46 271.19 35.25 271.19 0 264.52 2.21" style="fill: #fff"/>
        <polygon points="250.6 2.21 250.6 37.46 257.26 35.25 257.26 0 250.6 2.21" style="fill: #fff"/>
        <polygon points="236.68 2.21 236.68 37.46 243.34 35.25 243.34 0 236.68 2.21" style="fill: #fff"/>
        <polygon points="222.76 2.21 222.76 37.46 229.42 35.25 229.42 0 222.76 2.21" style="fill: #fff"/>
        <polygon points="431.59 2.21 431.59 37.46 438.25 35.25 438.25 0 431.59 2.21" style="fill: #fff"/>
        <polygon points="417.67 2.21 417.67 37.46 424.33 35.25 424.33 0 417.67 2.21" style="fill: #fff"/>
        <polygon points="403.75 2.21 403.75 37.46 410.41 35.25 410.41 0 403.75 2.21" style="fill: #fff"/>
        <polygon points="389.82 2.21 389.82 37.46 396.49 35.25 396.49 0 389.82 2.21" style="fill: #fff"/>
        <polygon points="375.9 2.21 375.9 37.46 382.56 35.25 382.56 0 375.9 2.21" style="fill: #fff"/>
        <polygon points="361.98 2.21 361.98 37.46 368.64 35.25 368.64 0 361.98 2.21" style="fill: #fff"/>
        <polygon points="348.06 2.21 348.06 37.46 354.72 35.25 354.72 0 348.06 2.21" style="fill: #fff"/>
        <polygon points="334.13 2.21 334.13 37.46 340.8 35.25 340.8 0 334.13 2.21" style="fill: #fff"/>
        <polygon points="97.46 2.21 97.46 37.46 104.12 35.25 104.12 0 97.46 2.21" style="fill: #fff"/>
        <polygon points="83.53 2.21 83.53 37.46 90.2 35.25 90.2 0 83.53 2.21" style="fill: #fff"/>
        <polygon points="69.61 2.21 69.61 37.46 76.28 35.25 76.28 0 69.61 2.21" style="fill: #fff"/>
        <polygon points="55.69 2.21 55.69 37.46 62.35 35.25 62.35 0 55.69 2.21" style="fill: #fff"/>
        <polygon points="41.77 2.21 41.77 37.46 48.43 35.25 48.43 0 41.77 2.21" style="fill: #fff"/>
        <polygon points="27.84 2.21 27.84 37.46 34.51 35.25 34.51 0 27.84 2.21" style="fill: #fff"/>
        <polygon points="13.92 2.21 13.92 37.46 20.59 35.25 20.59 0 13.92 2.21" style="fill: #fff"/>
        <polygon points="0 2.21 0 37.46 6.67 35.25 6.67 0 0 2.21" style="fill: #fff"/>
        <polygon points="208.83 2.21 208.83 37.46 215.5 35.25 215.5 0 208.83 2.21" style="fill: #fff"/>
        <polygon points="194.91 2.21 194.91 37.46 201.58 35.25 201.58 0 194.91 2.21" style="fill: #fff"/>
        <polygon points="180.99 2.21 180.99 37.46 187.65 35.25 187.65 0 180.99 2.21" style="fill: #fff"/>
        <polygon points="167.07 2.21 167.07 37.46 173.73 35.25 173.73 0 167.07 2.21" style="fill: #fff"/>
        <polygon points="153.15 2.21 153.15 37.46 159.81 35.25 159.81 0 153.15 2.21" style="fill: #fff"/>
        <polygon points="139.22 2.21 139.22 37.46 145.89 35.25 145.89 0 139.22 2.21" style="fill: #fff"/>
        <polygon points="125.3 2.21 125.3 37.46 131.97 35.25 131.97 0 125.3 2.21" style="fill: #fff"/>
        <polygon points="111.38 2.21 111.38 37.46 118.04 35.25 118.04 0 111.38 2.21" style="fill: #fff"/>
      </g>
    </g>
  </g>
</svg>
