<svg xmlns="http://www.w3.org/2000/svg" width="33.06" height="31.56" viewBox="0 0 33.06 31.56">
  <defs>
    <style>
      .cls-1 {
        fill: none;
        stroke: #242122;
        stroke-miterlimit: 10;
        stroke-width: 0.75px;
      }

      .cls-2 {
        fill: #242122;
      }
    </style>
  </defs>
  <g id="Layer_2" data-name="Layer 2">
    <g id="Layer_1-2" data-name="Layer 1">
      <rect class="cls-1" x="4.85" y="7.48" width="6.04" height="6.04" rx="1"/>
      <rect class="cls-1" x="12.89" y="7.48" width="6.04" height="6.04" rx="1"/>
      <g>
        <path class="cls-2" d="M15,1.15a.46.46,0,0,0-.38.23,1.43,1.43,0,0,0-.23.66l-.2,1.31a1.28,1.28,0,0,0,0,.67.32.32,0,0,0,.33.22A.48.48,0,0,0,14.91,4a1.55,1.55,0,0,0,.23-.66L15.34,2a1.39,1.39,0,0,0,0-.67A.32.32,0,0,0,15,1.15Z"/>
        <path class="cls-2" d="M8.69,1.15a.46.46,0,0,0-.39.23A1.55,1.55,0,0,0,8.07,2l-.2,1.31A1.39,1.39,0,0,0,7.9,4a.32.32,0,0,0,.33.22A.48.48,0,0,0,8.61,4a1.55,1.55,0,0,0,.23-.66L9,2a1.39,1.39,0,0,0,0-.67A.32.32,0,0,0,8.69,1.15Z"/>
        <path class="cls-2" d="M32.28,0H3.75a.77.77,0,0,0-.62.31l-3,3.93A.77.77,0,0,0,.78,5.48H29.31a.77.77,0,0,0,.62-.31l3-3.93A.77.77,0,0,0,32.28,0ZM4.92,4.18H6.44l-.09.65H3.74l.07-.55,1.4-1.5a4,4,0,0,0,.44-.58,1.5,1.5,0,0,0,.17-.45.79.79,0,0,0,0-.45.33.33,0,0,0-.31-.15.46.46,0,0,0-.38.21,1,1,0,0,0-.2.52H4.07v0a1.55,1.55,0,0,1,.48-1,1.4,1.4,0,0,1,1-.39,1.1,1.1,0,0,1,.88.34,1.09,1.09,0,0,1,.22.91,1.6,1.6,0,0,1-.29.71,9.61,9.61,0,0,1-.77.88l-.68.83ZM9.86,2.11,9.68,3.28a2,2,0,0,1-.53,1.19,1.39,1.39,0,0,1-1,.42,1,1,0,0,1-.88-.43,1.58,1.58,0,0,1-.2-1.18l.18-1.17A2,2,0,0,1,7.76.92a1.4,1.4,0,0,1,1-.42,1,1,0,0,1,.87.43A1.59,1.59,0,0,1,9.86,2.11Zm1.36,2.07h1.52l-.09.65H10l.07-.55,1.39-1.5A3.54,3.54,0,0,0,12,2.2a1.5,1.5,0,0,0,.17-.45.79.79,0,0,0,0-.45.33.33,0,0,0-.31-.15.46.46,0,0,0-.38.21,1,1,0,0,0-.2.52h-.82v0a1.46,1.46,0,0,1,.48-1,1.4,1.4,0,0,1,1-.39,1.1,1.1,0,0,1,.88.34,1.05,1.05,0,0,1,.21.91,1.48,1.48,0,0,1-.28.71,9.61,9.61,0,0,1-.77.88l-.69.83Zm4.94-2.07L16,3.28a2.09,2.09,0,0,1-.53,1.19,1.39,1.39,0,0,1-1,.42,1.06,1.06,0,0,1-.89-.43,1.58,1.58,0,0,1-.19-1.18l.18-1.17A2,2,0,0,1,14.06.92a1.39,1.39,0,0,1,1-.42A1,1,0,0,1,16,.93,1.59,1.59,0,0,1,16.16,2.11Z"/>
      </g>
      <g>
        <path class="cls-2" d="M15,18.8a.51.51,0,0,0-.39.25,1.39,1.39,0,0,0-.22.59,1.15,1.15,0,0,0,0,.6.3.3,0,0,0,.31.22.68.68,0,0,0,.31-.08,1.09,1.09,0,0,0,.25-.23l.07-.5a1.14,1.14,0,0,0,0-.64A.32.32,0,0,0,15,18.8Z"/>
        <path class="cls-2" d="M8.69,18.8A.47.47,0,0,0,8.3,19a1.5,1.5,0,0,0-.23.65L7.87,21a1.43,1.43,0,0,0,0,.68.34.34,0,0,0,.33.22.47.47,0,0,0,.38-.24A1.45,1.45,0,0,0,8.84,21L9,19.69A1.36,1.36,0,0,0,9,19,.33.33,0,0,0,8.69,18.8Z"/>
        <path class="cls-2" d="M32.28,17.66H3.75a.79.79,0,0,0-.62.3l-3,3.93a.78.78,0,0,0,.62,1.25H29.31a.8.8,0,0,0,.62-.31l3-3.93A.77.77,0,0,0,32.28,17.66ZM4.92,21.84H6.44l-.09.64H3.74l.07-.55,1.4-1.49a4,4,0,0,0,.44-.59,1.36,1.36,0,0,0,.17-.44.78.78,0,0,0,0-.45.33.33,0,0,0-.31-.16.46.46,0,0,0-.38.21,1,1,0,0,0-.2.53H4.07v0a1.61,1.61,0,0,1,.48-1,1.4,1.4,0,0,1,1-.38,1.12,1.12,0,0,1,.88.33,1.1,1.1,0,0,1,.22.91,1.64,1.64,0,0,1-.29.72A11.19,11.19,0,0,1,5.6,21l-.68.82Zm4.94-2.07-.18,1.17a2,2,0,0,1-.53,1.19,1.38,1.38,0,0,1-1,.41,1,1,0,0,1-.88-.43,1.56,1.56,0,0,1-.2-1.17l.18-1.17a2.09,2.09,0,0,1,.53-1.2,1.39,1.39,0,0,1,1-.41,1,1,0,0,1,.87.43A1.58,1.58,0,0,1,9.86,19.77Zm2,2.71h-.83l.53-3.55-.78,0,.1-.63,1.63-.16Zm4.25-2.68L16,21a1.92,1.92,0,0,1-.58,1.18,1.63,1.63,0,0,1-1.1.41,1.94,1.94,0,0,1-.4,0,1.88,1.88,0,0,1-.38-.14l.23-.6a1.26,1.26,0,0,0,.65.14.62.62,0,0,0,.47-.24,1.25,1.25,0,0,0,.27-.66l0-.27a1,1,0,0,1-.33.25.88.88,0,0,1-.38.09.86.86,0,0,1-.77-.39,1.44,1.44,0,0,1-.15-1,1.73,1.73,0,0,1,.52-1.07,1.37,1.37,0,0,1,1-.41,1,1,0,0,1,.88.43A1.61,1.61,0,0,1,16.13,19.8Z"/>
      </g>
      <rect class="cls-1" x="20.94" y="7.48" width="6.04" height="6.04" rx="1"/>
      <rect class="cls-1" x="4.85" y="25.14" width="6.04" height="6.04" rx="1"/>
      <rect class="cls-1" x="12.89" y="25.14" width="6.04" height="6.04" rx="1"/>
      <rect class="cls-1" x="20.94" y="25.14" width="6.04" height="6.04" rx="1"/>
    </g>
  </g>
</svg>
