<?xml version="1.0" encoding="utf-8"?>
<!-- Generator: Adobe Illustrator 24.2.0, SVG Export Plug-In . SVG Version: 6.00 Build 0)  -->
<svg version="1.1" id="Layer_1" xmlns="http://www.w3.org/2000/svg" xmlns:xlink="http://www.w3.org/1999/xlink" x="0px" y="0px"
	 viewBox="0 0 33.1 31.6" style="enable-background:new 0 0 33.1 31.6;" xml:space="preserve">
<style type="text/css">
	.st0{fill:none;stroke:#242122;stroke-width:0.75;stroke-miterlimit:10;}
	.st1{fill:#242122;}
	.st2{fill:none;stroke:#242122;stroke-width:0.9091;stroke-miterlimit:10;}
</style>
<g id="Layer_2_1_">
	<g id="Layer_1-2">
		<path class="st0" d="M5.8,7.5h4c0.6,0,1,0.4,1,1v4c0,0.6-0.4,1-1,1h-4c-0.6,0-1-0.4-1-1v-4C4.8,7.9,5.3,7.5,5.8,7.5z"/>
		<path class="st0" d="M13.9,7.5h4c0.6,0,1,0.4,1,1v4c0,0.6-0.4,1-1,1h-4c-0.6,0-1-0.4-1-1v-4C12.9,7.9,13.3,7.5,13.9,7.5z"/>
		<path class="st0" d="M21.9,7.5h4c0.6,0,1,0.4,1,1v4c0,0.6-0.4,1-1,1h-4c-0.6,0-1-0.4-1-1v-4C20.9,7.9,21.4,7.5,21.9,7.5z"/>
		<path class="st0" d="M5.8,25.1h4c0.6,0,1,0.4,1,1v4c0,0.6-0.4,1-1,1h-4c-0.6,0-1-0.4-1-1v-4C4.8,25.6,5.3,25.1,5.8,25.1z"/>
		<path class="st0" d="M13.9,25.1h4c0.6,0,1,0.4,1,1v4c0,0.6-0.4,1-1,1h-4c-0.6,0-1-0.4-1-1v-4C12.9,25.6,13.3,25.1,13.9,25.1z"/>
		<path class="st0" d="M21.9,25.1h4c0.6,0,1,0.4,1,1v4c0,0.6-0.4,1-1,1h-4c-0.6,0-1-0.4-1-1v-4C20.9,25.6,21.4,25.1,21.9,25.1z"/>
		<path class="st1" d="M32.3,0H3.8C3.5,0,3.3,0.1,3.1,0.3l-3,3.9c-0.3,0.3-0.2,0.8,0.1,1.1c0.1,0.1,0.3,0.2,0.5,0.2h28.5
			c0.2,0,0.5-0.1,0.6-0.3l3-3.9c0.3-0.3,0.2-0.8-0.1-1.1C32.6,0,32.5,0,32.3,0z M12,1.7L9.8,4.5C9.7,4.6,9.5,4.7,9.4,4.7H2.1
			c-0.3,0-0.6-0.2-0.6-0.6c0-0.1,0-0.2,0.1-0.3L3.8,1C3.9,0.9,4,0.8,4.2,0.8h7.3c0.3,0,0.6,0.2,0.6,0.5C12.1,1.4,12.1,1.6,12,1.7z"
			/>
		<path class="st1" d="M32.3,17.7H3.8c-0.2,0-0.5,0.1-0.6,0.3l-3,3.9c-0.3,0.3-0.2,0.8,0.2,1.1c0.1,0.1,0.3,0.2,0.5,0.2h28.6
			c0.2,0,0.5-0.1,0.6-0.3l3-3.9c0.3-0.3,0.2-0.8-0.1-1.1C32.6,17.7,32.5,17.7,32.3,17.7z M12,19.3l-2.2,2.8
			c-0.1,0.1-0.3,0.2-0.4,0.2H2.1c-0.3,0-0.6-0.3-0.6-0.6c0-0.1,0-0.2,0.1-0.3l2.2-2.8c0.1-0.1,0.3-0.2,0.4-0.2h7.3
			c0.3,0,0.6,0.2,0.6,0.5C12.1,19.1,12.1,19.2,12,19.3z"/>
		<path class="st2" d="M4.8,5.1l3.7-4.7"/>
		<path class="st2" d="M4.8,22.7l3.7-4.7"/>
	</g>
</g>
</svg>
