<svg xmlns="http://www.w3.org/2000/svg" width="32" height="23.74" viewBox="0 0 32 23.74">
  <defs>
    <style>
      .cls-1, .cls-2, .cls-5 {
        fill: #242122;
      }

      .cls-1, .cls-2, .cls-3, .cls-4 {
        stroke: #242122;
        stroke-miterlimit: 10;
        stroke-width: 0.64px;
      }

      .cls-2 {
        opacity: 0.25;
      }

      .cls-3, .cls-4 {
        fill: none;
      }

      .cls-3 {
        stroke-dasharray: 1.78 1.78;
      }
    </style>
  </defs>
  <g id="Layer_2" data-name="Layer 2">
    <g id="Layer_1-2" data-name="Layer 1">
      <circle class="cls-1" cx="26.02" cy="5.98" r="5.66"/>
      <circle class="cls-2" cx="5.98" cy="5.98" r="5.66"/>
      <circle class="cls-3" cx="16.02" cy="5.98" r="5.66"/>
      <circle class="cls-4" cx="5.98" cy="5.98" r="5.66"/>
      <path class="cls-5" d="M6.61,21.59H4.13l-.89,2.15h-2l4.31-9.95h2l1.33,10h-2ZM4.75,20.07H6.44l-.35-3.14h0Z"/>
      <path class="cls-5" d="M22.77,23.74l1.49-9.95h2.85a3.47,3.47,0,0,1,2.3.68,2.08,2.08,0,0,1,.59,2,2.79,2.79,0,0,1-.51,1.28,2.28,2.28,0,0,1-1,.8,1.56,1.56,0,0,1,1.1.81,2.4,2.4,0,0,1,.2,1.45A3.25,3.25,0,0,1,28.59,23a4,4,0,0,1-2.48.71Zm2.59-4.41-.44,2.91h1.41a1.41,1.41,0,0,0,1-.36,1.7,1.7,0,0,0,.49-1,1.68,1.68,0,0,0-.14-1.13,1,1,0,0,0-.92-.38ZM25.55,18h1a1.52,1.52,0,0,0,1-.34,1.55,1.55,0,0,0,.51-1,1.3,1.3,0,0,0-.18-1.06,1.26,1.26,0,0,0-1-.32H26Z"/>
      <polygon class="cls-5" points="11.88 22.66 11.88 14.76 18.43 18.71 11.88 22.66"/>
      <rect class="cls-5" x="18.43" y="14.76" width="1.73" height="7.9"/>
    </g>
  </g>
</svg>
