<svg id="Layer_1" data-name="Layer 1" xmlns="http://www.w3.org/2000/svg" width="32.56" height="31.73" viewBox="0 0 32.56 31.73">
  <defs>
    <style>
      .cls-1, .cls-3, .cls-4, .cls-5, .cls-6 {
        fill: none;
        stroke: #242122;
        stroke-miterlimit: 10;
      }

      .cls-2 {
        fill: #242122;
      }

      .cls-3 {
        stroke-width: 0.75px;
      }

      .cls-4, .cls-6 {
        stroke-width: 0.5px;
      }

      .cls-5, .cls-6 {
        stroke-linecap: round;
      }

      .cls-5 {
        stroke-width: 1.22px;
      }
    </style>
  </defs>
  <path class="cls-1" d="M29.27,27.19H16.9l0-14.3a2.37,2.37,0,0,0-2.39-2.39H12.09v-7A3.12,3.12,0,0,1,15.21.35H29.27a3.12,3.12,0,0,1,3.12,3.12v20.6A3.12,3.12,0,0,1,29.27,27.19Z" transform="translate(-0.33 0.15)"/>
  <path class="cls-2" d="M16.87,21.85l0,5.34H29.37a3.07,3.07,0,0,0,3-3.12V21.85Zm9.47,3.85H17a.32.32,0,0,1,0-.63h9.32a.32.32,0,0,1,0,.63Zm0-1.66H17a.32.32,0,0,1,0-.63h9.32a.32.32,0,0,1,0,.63Zm3.13,2a1.67,1.67,0,1,1,1.66-1.66A1.66,1.66,0,0,1,29.47,26.08Z" transform="translate(-0.33 0.15)"/>
  <path class="cls-2" d="M29.37.35H15.11a3.07,3.07,0,0,0-3,3.12V7.75h20.3V3.47A3.07,3.07,0,0,0,29.37.35ZM15.71,1.93h13a.84.84,0,0,1,.83.84.83.83,0,0,1-.83.83h-13a.83.83,0,0,1-.83-.83A.84.84,0,0,1,15.71,1.93ZM18,6.41H13.15c-.17,0-.31-.2-.31-.45s.14-.46.31-.46H18c.17,0,.31.2.31.46S18.13,6.41,18,6.41Zm6.85,0H19.65c-.18,0-.32-.2-.32-.45s.14-.46.32-.46h5.16c.18,0,.32.2.32.46S25,6.41,24.81,6.41Zm6.5,0H26.5c-.17,0-.31-.2-.31-.45s.14-.46.31-.46h4.81c.17,0,.31.2.31.46S31.48,6.41,31.31,6.41Z" transform="translate(-0.33 0.15)"/>
  <path class="cls-3" d="M16.76,28.81a2.39,2.39,0,0,1-2.39,2.39H1.51a.8.8,0,0,1-.8-.8V13A2.39,2.39,0,0,1,3.1,10.65H14.37A2.39,2.39,0,0,1,16.76,13Z" transform="translate(-0.33 0.15)"/>
  <rect class="cls-2" x="12.67" y="27.43" width="2.28" height="2.28" rx="1.14"/>
  <line class="cls-4" x1="0.73" y1="26.51" x2="16.08" y2="26.51"/>
  <line class="cls-4" x1="0.73" y1="16.62" x2="16.08" y2="16.62"/>
  <line class="cls-5" x1="3.63" y1="13.27" x2="13.12" y2="13.27"/>
  <line class="cls-6" x1="11.52" y1="15.42" x2="15.04" y2="15.42"/>
  <line class="cls-6" x1="6.5" y1="15.42" x2="10.29" y2="15.42"/>
  <line class="cls-6" x1="1.78" y1="27.97" x2="11.6" y2="27.97"/>
  <line class="cls-6" x1="1.78" y1="29.18" x2="9.21" y2="29.18"/>
  <line class="cls-6" x1="5.27" y1="15.42" x2="1.75" y2="15.42"/>
</svg>
