<svg xmlns="http://www.w3.org/2000/svg" width="204.16" height="132.07" viewBox="0 0 204.16 132.07"><defs><style>.a,.b{fill:none;stroke:#fff;stroke-miterlimit:10;stroke-width:3px;}.b{stroke-linecap:round;}.c{fill:#fff;}</style></defs><rect class="a" x="85.58" y="9.76" width="108.69" height="112.55" rx="10"/><rect class="a" x="1.5" y="1.5" width="201.16" height="129.07" rx="15"/><line class="b" x1="93.58" y1="111.98" x2="121.59" y2="111.98"/><line class="b" x1="141.72" y1="111.98" x2="186.27" y2="111.98"/><path class="c" d="M72.26,45.73H19.79a11.51,11.51,0,0,0-11.5,11.5v55.08a11.51,11.51,0,0,0,11.5,11.5H67.26a11.51,11.51,0,0,0,11.5-11.5V52.23A6.51,6.51,0,0,0,72.26,45.73Zm-3.8,66.15H18.6a1.5,1.5,0,1,1,0-3H68.46a1.5,1.5,0,0,1,0,3Zm0-17.39H18.6a1.5,1.5,0,0,1,0-3H68.46a1.5,1.5,0,0,1,0,3Zm0-16.91H18.6a1.5,1.5,0,0,1,0-3H68.46a1.5,1.5,0,0,1,0,3Zm0-16.92H18.6a1.5,1.5,0,1,1,0-3H68.46a1.5,1.5,0,0,1,0,3Z"/><path class="c" d="M19.79,8.26a11.51,11.51,0,0,0-11.5,11.5V29.2a11.51,11.51,0,0,0,11.5,11.5H75.58a8.51,8.51,0,0,1,8.5,8.5h3V19.76a8.51,8.51,0,0,1,8.5-8.5v-3ZM61.27,31H18.6a1.5,1.5,0,0,1,0-3H61.27a1.5,1.5,0,0,1,0,3Zm7.19-7.67H18.6a1.5,1.5,0,0,1,0-3H68.46a1.5,1.5,0,0,1,0,3Z"/></svg>